<mxfile host="app.diagrams.net" modified="2022-03-02T10:16:09.494Z" agent="5.0 (Windows NT 10.0; Win64; x64) AppleWebKit/537.36 (KHTML, like Gecko) Chrome/98.0.4758.102 Safari/537.36 Edg/98.0.1108.62" etag="1P0oYBCmgxMEfPDoliY7" version="16.6.4" type="github">
  <diagram id="DBrndhMRon01NCxMLi8W" name="Page-1">
    <mxGraphModel dx="1221" dy="680" grid="1" gridSize="10" guides="1" tooltips="1" connect="1" arrows="1" fold="1" page="1" pageScale="1" pageWidth="2500" pageHeight="2500" math="0" shadow="0">
      <root>
        <mxCell id="0" />
        <mxCell id="1" parent="0" />
        <mxCell id="cO_JLx6r3B_wXoH_glPn-7" value="Skill" style="swimlane;html=1;fontStyle=0;childLayout=stackLayout;horizontal=1;startSize=26;horizontalStack=0;resizeParent=1;resizeLast=0;collapsible=1;marginBottom=0;swimlaneFillColor=#ffffff;rounded=0;shadow=0;comic=0;labelBackgroundColor=none;strokeWidth=1;fontFamily=Verdana;fontSize=10;align=center;strokeColor=#3333FF;" parent="1" vertex="1">
          <mxGeometry x="440" y="775" width="160" height="160" as="geometry" />
        </mxCell>
        <mxCell id="cO_JLx6r3B_wXoH_glPn-8" value="+ id : int" style="text;html=1;strokeColor=#3333FF;fillColor=none;align=left;verticalAlign=top;spacingLeft=4;spacingRight=4;whiteSpace=wrap;overflow=hidden;rotatable=0;points=[[0,0.5],[1,0.5]];portConstraint=eastwest;" parent="cO_JLx6r3B_wXoH_glPn-7" vertex="1">
          <mxGeometry y="26" width="160" height="26" as="geometry" />
        </mxCell>
        <mxCell id="cO_JLx6r3B_wXoH_glPn-9" value="+ name : string" style="text;html=1;strokeColor=#3333FF;fillColor=none;align=left;verticalAlign=top;spacingLeft=4;spacingRight=4;whiteSpace=wrap;overflow=hidden;rotatable=0;points=[[0,0.5],[1,0.5]];portConstraint=eastwest;" parent="cO_JLx6r3B_wXoH_glPn-7" vertex="1">
          <mxGeometry y="52" width="160" height="26" as="geometry" />
        </mxCell>
        <mxCell id="cO_JLx6r3B_wXoH_glPn-10" value="+ isLanguage : bool" style="text;html=1;strokeColor=#3333FF;fillColor=none;align=left;verticalAlign=top;spacingLeft=4;spacingRight=4;whiteSpace=wrap;overflow=hidden;rotatable=0;points=[[0,0.5],[1,0.5]];portConstraint=eastwest;" parent="cO_JLx6r3B_wXoH_glPn-7" vertex="1">
          <mxGeometry y="78" width="160" height="26" as="geometry" />
        </mxCell>
        <mxCell id="cO_JLx6r3B_wXoH_glPn-11" value="+ catagory : Category" style="text;html=1;strokeColor=#3333FF;fillColor=none;align=left;verticalAlign=top;spacingLeft=4;spacingRight=4;whiteSpace=wrap;overflow=hidden;rotatable=0;points=[[0,0.5],[1,0.5]];portConstraint=eastwest;" parent="cO_JLx6r3B_wXoH_glPn-7" vertex="1">
          <mxGeometry y="104" width="160" height="26" as="geometry" />
        </mxCell>
        <mxCell id="cO_JLx6r3B_wXoH_glPn-12" value="+ level : enum" style="text;html=1;strokeColor=#3333FF;fillColor=none;align=left;verticalAlign=top;spacingLeft=4;spacingRight=4;whiteSpace=wrap;overflow=hidden;rotatable=0;points=[[0,0.5],[1,0.5]];portConstraint=eastwest;" parent="cO_JLx6r3B_wXoH_glPn-7" vertex="1">
          <mxGeometry y="130" width="160" height="26" as="geometry" />
        </mxCell>
        <mxCell id="cO_JLx6r3B_wXoH_glPn-13" value="Member" style="swimlane;html=1;fontStyle=0;childLayout=stackLayout;horizontal=1;startSize=26;horizontalStack=0;resizeParent=1;resizeLast=0;collapsible=1;marginBottom=0;swimlaneFillColor=#ffffff;rounded=0;shadow=0;comic=0;labelBackgroundColor=none;strokeWidth=1;fontFamily=Verdana;fontSize=10;align=center;strokeColor=#3333FF;" parent="1" vertex="1">
          <mxGeometry x="490" y="1275" width="160" height="480" as="geometry" />
        </mxCell>
        <mxCell id="cO_JLx6r3B_wXoH_glPn-14" value="+ id : int" style="text;html=1;strokeColor=#3333FF;fillColor=none;align=left;verticalAlign=top;spacingLeft=4;spacingRight=4;whiteSpace=wrap;overflow=hidden;rotatable=0;points=[[0,0.5],[1,0.5]];portConstraint=eastwest;" parent="cO_JLx6r3B_wXoH_glPn-13" vertex="1">
          <mxGeometry y="26" width="160" height="26" as="geometry" />
        </mxCell>
        <mxCell id="cO_JLx6r3B_wXoH_glPn-15" value="+ name : string" style="text;html=1;strokeColor=#3333FF;fillColor=none;align=left;verticalAlign=top;spacingLeft=4;spacingRight=4;whiteSpace=wrap;overflow=hidden;rotatable=0;points=[[0,0.5],[1,0.5]];portConstraint=eastwest;" parent="cO_JLx6r3B_wXoH_glPn-13" vertex="1">
          <mxGeometry y="52" width="160" height="26" as="geometry" />
        </mxCell>
        <mxCell id="cO_JLx6r3B_wXoH_glPn-16" value="+ lastName : string" style="text;html=1;strokeColor=#3333FF;fillColor=none;align=left;verticalAlign=top;spacingLeft=4;spacingRight=4;whiteSpace=wrap;overflow=hidden;rotatable=0;points=[[0,0.5],[1,0.5]];portConstraint=eastwest;" parent="cO_JLx6r3B_wXoH_glPn-13" vertex="1">
          <mxGeometry y="78" width="160" height="32" as="geometry" />
        </mxCell>
        <mxCell id="cO_JLx6r3B_wXoH_glPn-17" value="+ department : string" style="text;html=1;strokeColor=#3333FF;fillColor=none;align=left;verticalAlign=top;spacingLeft=4;spacingRight=4;whiteSpace=wrap;overflow=hidden;rotatable=0;points=[[0,0.5],[1,0.5]];portConstraint=eastwest;" parent="cO_JLx6r3B_wXoH_glPn-13" vertex="1">
          <mxGeometry y="110" width="160" height="30" as="geometry" />
        </mxCell>
        <mxCell id="cO_JLx6r3B_wXoH_glPn-18" value="+ skills: List&amp;lt;Skill&amp;gt;" style="text;html=1;strokeColor=#3333FF;fillColor=none;align=left;verticalAlign=top;spacingLeft=4;spacingRight=4;whiteSpace=wrap;overflow=hidden;rotatable=0;points=[[0,0.5],[1,0.5]];portConstraint=eastwest;" parent="cO_JLx6r3B_wXoH_glPn-13" vertex="1">
          <mxGeometry y="140" width="160" height="30" as="geometry" />
        </mxCell>
        <mxCell id="cO_JLx6r3B_wXoH_glPn-19" value="+ picture: string" style="text;html=1;strokeColor=#3333FF;fillColor=none;align=left;verticalAlign=top;spacingLeft=4;spacingRight=4;whiteSpace=wrap;overflow=hidden;rotatable=0;points=[[0,0.5],[1,0.5]];portConstraint=eastwest;" parent="cO_JLx6r3B_wXoH_glPn-13" vertex="1">
          <mxGeometry y="170" width="160" height="30" as="geometry" />
        </mxCell>
        <mxCell id="cO_JLx6r3B_wXoH_glPn-20" value="+ email: string" style="text;html=1;strokeColor=#3333FF;fillColor=none;align=left;verticalAlign=top;spacingLeft=4;spacingRight=4;whiteSpace=wrap;overflow=hidden;rotatable=0;points=[[0,0.5],[1,0.5]];portConstraint=eastwest;" parent="cO_JLx6r3B_wXoH_glPn-13" vertex="1">
          <mxGeometry y="200" width="160" height="30" as="geometry" />
        </mxCell>
        <mxCell id="cO_JLx6r3B_wXoH_glPn-21" value="+ isEnable: bool" style="text;html=1;strokeColor=#3333FF;fillColor=none;align=left;verticalAlign=top;spacingLeft=4;spacingRight=4;whiteSpace=wrap;overflow=hidden;rotatable=0;points=[[0,0.5],[1,0.5]];portConstraint=eastwest;" parent="cO_JLx6r3B_wXoH_glPn-13" vertex="1">
          <mxGeometry y="230" width="160" height="30" as="geometry" />
        </mxCell>
        <mxCell id="cO_JLx6r3B_wXoH_glPn-22" value="+ tags: List&amp;lt;Tag&amp;gt;" style="text;html=1;strokeColor=#3333FF;fillColor=none;align=left;verticalAlign=top;spacingLeft=4;spacingRight=4;whiteSpace=wrap;overflow=hidden;rotatable=0;points=[[0,0.5],[1,0.5]];portConstraint=eastwest;" parent="cO_JLx6r3B_wXoH_glPn-13" vertex="1">
          <mxGeometry y="260" width="160" height="30" as="geometry" />
        </mxCell>
        <mxCell id="cO_JLx6r3B_wXoH_glPn-23" value="+ description: string" style="text;html=1;strokeColor=#3333FF;fillColor=none;align=left;verticalAlign=top;spacingLeft=4;spacingRight=4;whiteSpace=wrap;overflow=hidden;rotatable=0;points=[[0,0.5],[1,0.5]];portConstraint=eastwest;" parent="cO_JLx6r3B_wXoH_glPn-13" vertex="1">
          <mxGeometry y="290" width="160" height="30" as="geometry" />
        </mxCell>
        <mxCell id="cO_JLx6r3B_wXoH_glPn-24" value="+ lastUpdated: datetime" style="text;html=1;strokeColor=#3333FF;fillColor=none;align=left;verticalAlign=top;spacingLeft=4;spacingRight=4;whiteSpace=wrap;overflow=hidden;rotatable=0;points=[[0,0.5],[1,0.5]];portConstraint=eastwest;" parent="cO_JLx6r3B_wXoH_glPn-13" vertex="1">
          <mxGeometry y="320" width="160" height="30" as="geometry" />
        </mxCell>
        <mxCell id="0mOoLYNLW5pb3kd6cCvZ-5" style="edgeStyle=orthogonalEdgeStyle;rounded=0;orthogonalLoop=1;jettySize=auto;html=1;entryX=0;entryY=0.5;entryDx=0;entryDy=0;dashed=1;strokeColor=#0000FF;" edge="1" parent="1" source="cO_JLx6r3B_wXoH_glPn-25" target="cO_JLx6r3B_wXoH_glPn-13">
          <mxGeometry relative="1" as="geometry" />
        </mxCell>
        <mxCell id="cO_JLx6r3B_wXoH_glPn-25" value="&lt;p style=&quot;margin: 0px ; margin-top: 4px ; text-align: center&quot;&gt;&lt;i&gt;&amp;lt;&amp;lt;Interface&amp;gt;&amp;gt;&lt;/i&gt;&lt;br&gt;&lt;b&gt;IMemberController&lt;/b&gt;&lt;/p&gt;&lt;hr size=&quot;1&quot;&gt;&lt;p style=&quot;margin: 0px ; margin-left: 4px&quot;&gt;&lt;br&gt;&lt;/p&gt;&lt;hr size=&quot;1&quot;&gt;&lt;p style=&quot;margin: 0px ; margin-left: 4px&quot;&gt;+ addNewMember (Member): void&lt;/p&gt;&lt;p style=&quot;margin: 0px ; margin-left: 4px&quot;&gt;&lt;span&gt;+ deleteMember (int): void&lt;/span&gt;&lt;br&gt;&lt;/p&gt;&lt;p style=&quot;margin: 0px ; margin-left: 4px&quot;&gt;+ editMember (Member): void&lt;br&gt;&lt;/p&gt;&lt;p style=&quot;margin: 0px ; margin-left: 4px&quot;&gt;+ addSkillToMember(int memberId,Skill skill): void&lt;br&gt;&lt;/p&gt;&lt;p style=&quot;margin: 0px ; margin-left: 4px&quot;&gt;+ deleteSkillOfMember(int memberId,int skillId): void&lt;br&gt;&lt;/p&gt;&lt;p style=&quot;margin: 0px ; margin-left: 4px&quot;&gt;+ getMember(int memberId): Member&amp;nbsp;&lt;br&gt;&lt;/p&gt;&lt;p style=&quot;margin: 0px ; margin-left: 4px&quot;&gt;+ getAllMembers(): List&amp;lt;Member&amp;gt;&lt;br&gt;&lt;/p&gt;&lt;p style=&quot;margin: 0px ; margin-left: 4px&quot;&gt;&lt;br&gt;&lt;/p&gt;" style="verticalAlign=top;align=left;overflow=fill;fontSize=12;fontFamily=Helvetica;html=1;rounded=0;shadow=0;comic=0;labelBackgroundColor=none;strokeWidth=1;strokeColor=#3333FF;" parent="1" vertex="1">
          <mxGeometry x="40" y="1370" width="340" height="290" as="geometry" />
        </mxCell>
        <mxCell id="0mOoLYNLW5pb3kd6cCvZ-6" style="edgeStyle=orthogonalEdgeStyle;rounded=0;orthogonalLoop=1;jettySize=auto;html=1;exitX=1;exitY=0.5;exitDx=0;exitDy=0;entryX=0;entryY=0.5;entryDx=0;entryDy=0;dashed=1;strokeColor=#0000FF;" edge="1" parent="1" source="cO_JLx6r3B_wXoH_glPn-26" target="cO_JLx6r3B_wXoH_glPn-7">
          <mxGeometry relative="1" as="geometry" />
        </mxCell>
        <mxCell id="cO_JLx6r3B_wXoH_glPn-26" value="&lt;p style=&quot;margin: 0px ; margin-top: 4px ; text-align: center&quot;&gt;&lt;i&gt;&amp;lt;&amp;lt;Interface&amp;gt;&amp;gt;&lt;/i&gt;&lt;br&gt;&lt;b&gt;ISkillController&lt;/b&gt;&lt;/p&gt;&lt;hr size=&quot;1&quot;&gt;&lt;p style=&quot;margin: 0px ; margin-left: 4px&quot;&gt;&lt;br&gt;&lt;/p&gt;&lt;hr size=&quot;1&quot;&gt;&lt;p style=&quot;margin: 0px ; margin-left: 4px&quot;&gt;+ addNewSkill(Skill skill): void&lt;/p&gt;&lt;p style=&quot;margin: 0px ; margin-left: 4px&quot;&gt;+ editSkill(Skill skill): void&lt;br&gt;&lt;/p&gt;&lt;p style=&quot;margin: 0px ; margin-left: 4px&quot;&gt;&lt;span&gt;+ deleteSkill(int skillId): void&lt;/span&gt;&lt;br&gt;&lt;/p&gt;&lt;p style=&quot;margin: 0px ; margin-left: 4px&quot;&gt;+ getSkill(int skillId): Skill&lt;br&gt;+ getAllSkills(): List&amp;lt;Skill&amp;gt;&lt;br&gt;&lt;/p&gt;&lt;p style=&quot;margin: 0px 0px 0px 4px&quot;&gt;+ changeSKill(int skillid, Skill skill): void&lt;br&gt;&lt;/p&gt;&lt;p style=&quot;margin: 0px 0px 0px 4px&quot;&gt;&lt;br&gt;&lt;/p&gt;&lt;p style=&quot;margin: 0px ; margin-left: 4px&quot;&gt;&lt;br&gt;&lt;/p&gt;" style="verticalAlign=top;align=left;overflow=fill;fontSize=12;fontFamily=Helvetica;html=1;rounded=0;shadow=0;comic=0;labelBackgroundColor=none;strokeWidth=1;strokeColor=#3333FF;" parent="1" vertex="1">
          <mxGeometry x="40" y="710" width="340" height="290" as="geometry" />
        </mxCell>
        <mxCell id="cO_JLx6r3B_wXoH_glPn-27" value="Category" style="swimlane;html=1;fontStyle=0;childLayout=stackLayout;horizontal=1;startSize=26;horizontalStack=0;resizeParent=1;resizeLast=0;collapsible=1;marginBottom=0;swimlaneFillColor=#ffffff;rounded=0;shadow=0;comic=0;labelBackgroundColor=none;strokeWidth=1;fontFamily=Verdana;fontSize=10;align=center;strokeColor=#3333FF;" parent="1" vertex="1">
          <mxGeometry x="1010" y="170" width="160" height="170" as="geometry" />
        </mxCell>
        <mxCell id="cO_JLx6r3B_wXoH_glPn-28" value="+ id : int" style="text;html=1;strokeColor=#3333FF;fillColor=none;align=left;verticalAlign=top;spacingLeft=4;spacingRight=4;whiteSpace=wrap;overflow=hidden;rotatable=0;points=[[0,0.5],[1,0.5]];portConstraint=eastwest;" parent="cO_JLx6r3B_wXoH_glPn-27" vertex="1">
          <mxGeometry y="26" width="160" height="26" as="geometry" />
        </mxCell>
        <mxCell id="cO_JLx6r3B_wXoH_glPn-29" value="+ name : string" style="text;html=1;strokeColor=#3333FF;fillColor=none;align=left;verticalAlign=top;spacingLeft=4;spacingRight=4;whiteSpace=wrap;overflow=hidden;rotatable=0;points=[[0,0.5],[1,0.5]];portConstraint=eastwest;" parent="cO_JLx6r3B_wXoH_glPn-27" vertex="1">
          <mxGeometry y="52" width="160" height="26" as="geometry" />
        </mxCell>
        <mxCell id="cO_JLx6r3B_wXoH_glPn-30" value="+ type: string" style="text;html=1;strokeColor=#3333FF;fillColor=none;align=left;verticalAlign=top;spacingLeft=4;spacingRight=4;whiteSpace=wrap;overflow=hidden;rotatable=0;points=[[0,0.5],[1,0.5]];portConstraint=eastwest;" parent="cO_JLx6r3B_wXoH_glPn-27" vertex="1">
          <mxGeometry y="78" width="160" height="30" as="geometry" />
        </mxCell>
        <mxCell id="cO_JLx6r3B_wXoH_glPn-31" value="UserManagement" style="swimlane;html=1;fontStyle=0;childLayout=stackLayout;horizontal=1;startSize=26;horizontalStack=0;resizeParent=1;resizeLast=0;collapsible=1;marginBottom=0;swimlaneFillColor=#ffffff;rounded=0;shadow=0;comic=0;labelBackgroundColor=none;strokeWidth=1;fontFamily=Verdana;fontSize=10;align=center;strokeColor=#3333FF;" parent="1" vertex="1">
          <mxGeometry x="750" y="1070" width="160" height="80" as="geometry" />
        </mxCell>
        <mxCell id="cO_JLx6r3B_wXoH_glPn-32" value="+ role: Role" style="text;html=1;strokeColor=#3333FF;fillColor=none;align=left;verticalAlign=top;spacingLeft=4;spacingRight=4;whiteSpace=wrap;overflow=hidden;rotatable=0;points=[[0,0.5],[1,0.5]];portConstraint=eastwest;" parent="cO_JLx6r3B_wXoH_glPn-31" vertex="1">
          <mxGeometry y="26" width="160" height="26" as="geometry" />
        </mxCell>
        <mxCell id="cO_JLx6r3B_wXoH_glPn-33" value="+ member: Member" style="text;html=1;strokeColor=#3333FF;fillColor=none;align=left;verticalAlign=top;spacingLeft=4;spacingRight=4;whiteSpace=wrap;overflow=hidden;rotatable=0;points=[[0,0.5],[1,0.5]];portConstraint=eastwest;" parent="cO_JLx6r3B_wXoH_glPn-31" vertex="1">
          <mxGeometry y="52" width="160" height="26" as="geometry" />
        </mxCell>
        <mxCell id="cO_JLx6r3B_wXoH_glPn-34" value="Role" style="swimlane;html=1;fontStyle=0;childLayout=stackLayout;horizontal=1;startSize=26;horizontalStack=0;resizeParent=1;resizeLast=0;collapsible=1;marginBottom=0;swimlaneFillColor=#ffffff;rounded=0;shadow=0;comic=0;labelBackgroundColor=none;strokeWidth=1;fontFamily=Verdana;fontSize=10;align=center;strokeColor=#3333FF;" parent="1" vertex="1">
          <mxGeometry x="910" y="1275" width="160" height="60" as="geometry" />
        </mxCell>
        <mxCell id="cO_JLx6r3B_wXoH_glPn-35" value="+ name: string" style="text;html=1;strokeColor=#3333FF;fillColor=none;align=left;verticalAlign=top;spacingLeft=4;spacingRight=4;whiteSpace=wrap;overflow=hidden;rotatable=0;points=[[0,0.5],[1,0.5]];portConstraint=eastwest;" parent="cO_JLx6r3B_wXoH_glPn-34" vertex="1">
          <mxGeometry y="26" width="160" height="26" as="geometry" />
        </mxCell>
        <mxCell id="cO_JLx6r3B_wXoH_glPn-36" value="Tag" style="swimlane;html=1;fontStyle=0;childLayout=stackLayout;horizontal=1;startSize=26;horizontalStack=0;resizeParent=1;resizeLast=0;collapsible=1;marginBottom=0;swimlaneFillColor=#ffffff;rounded=0;shadow=0;comic=0;labelBackgroundColor=none;strokeWidth=1;fontFamily=Verdana;fontSize=10;align=center;strokeColor=#3333FF;" parent="1" vertex="1">
          <mxGeometry x="840" y="290" width="160" height="110" as="geometry" />
        </mxCell>
        <mxCell id="cO_JLx6r3B_wXoH_glPn-37" value="+ name: string" style="text;html=1;strokeColor=#3333FF;fillColor=none;align=left;verticalAlign=top;spacingLeft=4;spacingRight=4;whiteSpace=wrap;overflow=hidden;rotatable=0;points=[[0,0.5],[1,0.5]];portConstraint=eastwest;" parent="cO_JLx6r3B_wXoH_glPn-36" vertex="1">
          <mxGeometry y="26" width="160" height="26" as="geometry" />
        </mxCell>
        <mxCell id="cO_JLx6r3B_wXoH_glPn-38" value="+ color: string" style="text;html=1;strokeColor=#3333FF;fillColor=none;align=left;verticalAlign=top;spacingLeft=4;spacingRight=4;whiteSpace=wrap;overflow=hidden;rotatable=0;points=[[0,0.5],[1,0.5]];portConstraint=eastwest;" parent="cO_JLx6r3B_wXoH_glPn-36" vertex="1">
          <mxGeometry y="52" width="160" height="26" as="geometry" />
        </mxCell>
        <mxCell id="cO_JLx6r3B_wXoH_glPn-39" value="+ type: enum" style="text;html=1;strokeColor=#3333FF;fillColor=none;align=left;verticalAlign=top;spacingLeft=4;spacingRight=4;whiteSpace=wrap;overflow=hidden;rotatable=0;points=[[0,0.5],[1,0.5]];portConstraint=eastwest;" parent="cO_JLx6r3B_wXoH_glPn-36" vertex="1">
          <mxGeometry y="78" width="160" height="26" as="geometry" />
        </mxCell>
        <mxCell id="cO_JLx6r3B_wXoH_glPn-40" value="&amp;laquo;interface&amp;raquo;&lt;br&gt;&lt;b&gt;Name&lt;/b&gt;" style="html=1;rounded=0;shadow=0;comic=0;labelBackgroundColor=none;strokeWidth=1;fontFamily=Verdana;fontSize=10;align=center;strokeColor=#3333FF;" parent="1" vertex="1">
          <mxGeometry x="470" y="26" width="160" height="50" as="geometry" />
        </mxCell>
        <mxCell id="0mOoLYNLW5pb3kd6cCvZ-8" style="edgeStyle=orthogonalEdgeStyle;rounded=0;orthogonalLoop=1;jettySize=auto;html=1;exitX=0;exitY=0.5;exitDx=0;exitDy=0;entryX=0.5;entryY=0;entryDx=0;entryDy=0;dashed=1;strokeColor=#0000FF;" edge="1" parent="1" source="cO_JLx6r3B_wXoH_glPn-32" target="cO_JLx6r3B_wXoH_glPn-13">
          <mxGeometry relative="1" as="geometry" />
        </mxCell>
        <mxCell id="0mOoLYNLW5pb3kd6cCvZ-9" style="edgeStyle=orthogonalEdgeStyle;rounded=0;orthogonalLoop=1;jettySize=auto;html=1;exitX=1;exitY=0.5;exitDx=0;exitDy=0;entryX=0.5;entryY=0;entryDx=0;entryDy=0;dashed=1;strokeColor=#0000FF;" edge="1" parent="1" source="cO_JLx6r3B_wXoH_glPn-32" target="cO_JLx6r3B_wXoH_glPn-34">
          <mxGeometry relative="1" as="geometry" />
        </mxCell>
      </root>
    </mxGraphModel>
  </diagram>
</mxfile>
